PathFileType	4	(X/Y/Z)	C:/Users/opensim2020/Desktop/walking_exp_matlab/subject02_walking08_straight_04.trc	
DataRate	CameraRate	NumFrames	NumMarkers	Units	OrigDataRate	OrigDataStartFrame	OrigNumFrames	
100.00	100.00	8	41	mm	100.00	3167	241	
Frame#	Time	LFHD			RFHD			LBHD			RBHD			C7			T10			CLAV			STRN			RBAK			LSHO			LUPA			LELB			LFRM			LWRA			LWRB			LFIN			RSHO			RUPA			RELB			RFRM			RWRA			RWRB			RFIN			LASI			RASI			LPSI			RPSI			LTHI			LKNE			LTIB			LANK			LHEE			LTOE			RTHI			RKNE			RTIB			RANK			RHEE			RTOE			*39			*40			
		X1	Y1	Z1	X2	Y2	Z2	X3	Y3	Z3	X4	Y4	Z4	X5	Y5	Z5	X6	Y6	Z6	X7	Y7	Z7	X8	Y8	Z8	X9	Y9	Z9	X10	Y10	Z10	X11	Y11	Z11	X12	Y12	Z12	X13	Y13	Z13	X14	Y14	Z14	X15	Y15	Z15	X16	Y16	Z16	X17	Y17	Z17	X18	Y18	Z18	X19	Y19	Z19	X20	Y20	Z20	X21	Y21	Z21	X22	Y22	Z22	X23	Y23	Z23	X24	Y24	Z24	X25	Y25	Z25	X26	Y26	Z26	X27	Y27	Z27	X28	Y28	Z28	X29	Y29	Z29	X30	Y30	Z30	X31	Y31	Z31	X32	Y32	Z32	X33	Y33	Z33	X34	Y34	Z34	X35	Y35	Z35	X36	Y36	Z36	X37	Y37	Z37	X38	Y38	Z38	X39	Y39	Z39	X40	Y40	Z40	X41	Y41	Z41	

181	1.800	1404.61621	-647.19141	1713.72363	1269.46948	-601.93542	1688.50317	1455.69739	-509.22382	1680.11499	1323.83264	-453.76489	1657.29773	1388.27466	-403.30515	1535.34192	1382.43872	-350.66272	1251.01038	1404.42786	-538.87799	1461.49243	1402.91479	-592.42426	1292.69373	1321.88000	-346.37592	1352.95227	1570.31250	-466.05933	1512.01477	1657.29199	-447.38217	1313.59265	1673.97058	-444.68997	1172.90344	1693.94348	-463.47519	1043.19690	1672.06860	-533.92334	921.13153	1703.79944	-486.41507	921.77094	1706.92529	-509.29587	857.63892	1206.29553	-484.36615	1492.21033	1118.85535	-469.62939	1300.21875	1102.18848	-495.15063	1154.35498	1086.65308	-544.49347	1044.12305	1106.29639	-618.48193	932.12775	1077.77539	-571.82446	917.02771	1072.77356	-622.69867	865.76831	1535.05798	-579.94379	999.06671	1280.63098	-598.33459	982.58466	1442.40076	-375.85132	1034.58093	1327.22253	-378.34286	1033.32837	1612.49341	-549.95532	691.21234	1598.42151	-559.01282	496.47168	1580.47400	-461.09903	332.89548	1555.76929	-416.68210	112.80492	1495.46216	-397.02759	87.73797	1616.92957	-541.98676	45.78786	1224.21106	-524.45349	672.57965	1272.68005	-516.70331	463.40024	1272.56104	-468.43298	280.24368	1318.81506	-445.03299	89.94944	1376.73035	-411.16702	37.65619	1297.35327	-594.87213	33.85780	1335.49915	-545.13464	1801.17651	-3360.41943	2845.21997	1034.03516 
182	1.810	1404.74524	-655.05542	1713.24536	1269.41907	-610.18958	1688.25256	1455.38184	-516.75726	1680.07178	1323.32947	-461.67496	1657.46155	1387.57910	-410.77112	1535.51331	1381.89990	-357.51978	1251.27039	1403.94922	-546.29779	1461.48999	1401.97510	-599.51062	1292.61328	1320.78882	-353.99298	1353.12585	1569.73621	-472.99576	1511.73633	1656.73364	-452.16379	1313.59290	1673.38843	-448.60071	1172.95264	1693.55176	-466.03790	1042.96765	1672.90063	-535.07813	920.27332	1703.81592	-486.93750	921.47296	1707.90063	-509.48380	857.21973	1205.80981	-491.82516	1492.63513	1117.83276	-479.31110	1300.53625	1100.74866	-506.26706	1155.14966	1085.70813	-556.53174	1045.46606	1105.73694	-631.48267	933.96729	1076.43164	-585.76172	918.54059	1072.00574	-637.21490	867.82013	1534.11145	-587.29755	999.52264	1279.54834	-604.64398	982.13586	1442.43591	-382.68616	1034.75012	1327.20032	-384.65771	1033.16895	1612.52930	-559.01648	692.22510	1597.78821	-569.51257	496.56836	1580.81909	-477.64127	328.88068	1557.47546	-442.27676	107.00406	1497.07336	-423.45813	80.75529	1618.13269	-570.54755	45.01428	1224.31360	-528.39252	672.31647	1272.79785	-519.42828	463.51559	1272.83240	-470.08481	280.40463	1318.93555	-445.31830	90.13621	1377.07813	-410.46219	38.26426	1297.26953	-594.85406	33.84573	1335.44788	-553.46960	1801.20398	-3356.75757	2845.82349	1034.06531 
183	1.820	1404.93665	-662.76587	1712.63196	1269.50171	-618.36603	1688.01819	1455.13538	-524.32458	1679.88208	1322.86023	-469.65744	1657.58850	1387.12708	-418.38150	1535.67188	1381.50269	-364.38092	1251.41028	1403.49255	-553.61517	1461.36597	1401.05493	-606.55664	1292.37158	1320.34570	-360.79269	1353.50684	1569.24841	-480.00854	1511.33313	1656.11926	-457.16946	1313.39063	1672.98608	-452.44882	1172.91357	1693.39148	-468.49432	1042.73682	1673.77258	-536.43097	919.41284	1704.02380	-488.03973	921.12195	1708.82166	-509.83572	856.83746	1205.39697	-499.23956	1492.89197	1116.60706	-488.73618	1300.96387	1099.38696	-517.76422	1155.88928	1084.31042	-569.45905	1046.61841	1105.23120	-644.69696	935.80127	1075.31531	-599.27600	920.13867	1071.37720	-651.26666	869.75714	1533.44214	-594.67328	999.83350	1278.60718	-611.17224	981.71796	1442.41260	-389.60623	1034.73743	1327.34180	-391.42813	1032.92615	1612.61011	-568.05420	693.15167	1597.11633	-579.91083	496.53333	1581.13916	-494.49362	324.84766	1559.12244	-468.31561	101.25874	1498.83484	-450.35403	74.18208	1619.50610	-599.01465	44.41486	1224.39331	-532.44727	672.03571	1272.81421	-521.98523	462.86218	1273.03406	-471.55652	280.40430	1319.09351	-445.56485	90.24107	1377.23779	-410.56696	38.36358	1297.18884	-594.85187	33.81902	1335.32983	-561.76813	1800.88025	-3360.29419	2845.22754	1034.10986 
184	1.830	1405.37256	-670.77313	1712.21936	1269.65198	-626.47504	1687.56836	1455.00439	-531.83618	1679.62292	1322.60864	-477.44589	1657.53394	1386.79150	-425.74368	1535.64246	1381.17957	-371.23953	1251.41565	1403.18042	-560.91577	1461.17310	1400.27112	-613.65466	1292.16248	1319.53784	-368.15479	1353.48853	1568.90417	-486.92548	1510.87854	1655.62781	-462.15457	1313.22864	1672.31567	-456.58267	1172.60449	1693.37744	-471.06830	1042.52283	1674.68176	-537.90991	918.54932	1704.17896	-488.98334	920.70087	1709.79041	-510.47290	856.56799	1204.93860	-506.76401	1492.91748	1115.77515	-498.11838	1301.35730	1098.11194	-529.20801	1156.50000	1083.39978	-581.77399	1047.74805	1104.75952	-657.64502	937.45428	1074.22644	-612.69055	921.51642	1070.76343	-665.07190	871.49017	1532.94397	-601.91217	999.94427	1277.93909	-617.46332	981.25421	1442.43372	-396.46362	1034.58545	1327.40186	-397.80750	1032.63269	1612.39050	-577.03430	693.86462	1596.49854	-589.79077	496.41376	1581.49500	-511.06122	321.03549	1560.75391	-494.47070	95.88123	1500.95874	-477.29730	68.45667	1621.06006	-627.32300	44.28343	1224.48389	-536.79510	671.61780	1273.13147	-524.44159	462.64194	1273.36621	-472.74182	280.37000	1319.24438	-445.83533	90.44240	1377.80737	-410.74814	38.28839	1297.03662	-594.83112	33.80849	1335.45007	-570.03113	1800.62476	-3360.26245	2845.15039	1034.08459 
185	1.840	1405.70496	-678.33466	1711.44958	1269.91980	-634.47974	1687.16345	1454.94629	-539.35229	1679.23083	1322.38245	-485.23642	1657.42102	1386.44788	-432.93893	1535.43591	1381.02966	-378.12369	1251.31055	1402.88184	-568.18903	1460.77246	1399.58215	-620.70563	1291.76404	1319.14795	-375.17899	1353.51184	1568.65320	-493.98499	1510.29883	1655.01013	-467.44965	1312.79309	1671.97693	-460.57297	1172.41577	1693.53931	-473.56116	1042.37585	1675.65662	-539.59473	917.66705	1704.45752	-490.30466	920.25348	1710.82214	-511.34357	856.19769	1204.65979	-514.16296	1493.04565	1115.03577	-507.14883	1301.13232	1097.29468	-539.99231	1156.91016	1082.88062	-593.60608	1048.89270	1104.33386	-670.51819	939.04181	1073.23621	-626.02179	922.85040	1070.23633	-678.94958	873.30493	1532.67212	-609.15088	999.91333	1277.41724	-623.97998	980.81964	1442.46057	-403.37088	1034.24390	1327.52759	-404.45889	1032.24280	1612.43420	-585.64752	694.38232	1595.79663	-599.64362	496.10922	1581.86060	-527.75549	317.21899	1563.17969	-520.25800	91.48421	1503.36475	-503.90146	63.18736	1622.84387	-655.45959	44.74158	1224.55457	-541.40485	671.25238	1273.39172	-527.19104	462.56155	1273.56714	-474.16141	280.52719	1319.40369	-446.13705	90.62477	1377.59888	-410.98868	38.60302	1296.92078	-594.84308	33.80352	1335.65015	-578.06580	1800.23425	-3356.90845	2845.89697	1034.12024 
186	1.850	1406.26929	-686.18884	1710.75037	1270.29077	-642.44232	1686.62427	1455.07813	-546.83246	1678.71143	1322.30811	-493.06689	1657.19666	1386.32605	-440.25522	1535.18152	1380.99829	-384.99454	1251.11719	1402.76062	-575.52643	1460.39038	1398.99963	-627.80969	1291.27893	1319.31567	-381.87952	1353.58875	1568.46130	-501.01794	1509.61499	1654.99841	-472.59616	1312.47717	1671.75220	-464.70874	1172.14587	1693.65662	-476.32599	1042.01172	1676.69934	-541.45941	916.78400	1704.82593	-491.81268	919.79425	1711.88049	-512.32697	855.71143	1204.58643	-521.34027	1493.01550	1114.80298	-515.84448	1301.23718	1096.43640	-551.31165	1157.40637	1082.16675	-605.79688	1049.94019	1104.06323	-683.30585	940.64014	1072.39563	-639.04724	924.16486	1069.73364	-692.36731	874.84302	1532.55688	-616.42450	999.76703	1277.04504	-630.53668	980.40314	1442.47412	-410.36530	1033.78833	1327.68396	-411.16873	1031.70129	1612.36133	-594.19159	694.68994	1595.12427	-609.41827	495.66791	1582.52161	-544.48297	313.62061	1565.71802	-546.01489	87.47910	1506.06421	-530.30310	58.39026	1624.75159	-683.33319	45.78544	1224.63794	-546.04901	670.78943	1273.32422	-530.22021	462.13699	1273.79443	-475.44263	280.62979	1319.58997	-446.44446	90.80917	1378.21094	-410.94962	38.57206	1296.80029	-594.84540	33.77476	1336.00024	-586.16711	1799.78394	-3357.07080	2845.90869	1034.07605 
187	1.860	1406.78650	-693.65869	1709.84717	1270.71179	-650.35455	1685.96851	1455.29858	-554.25916	1678.11279	1322.30103	-500.75958	1656.86963	1386.32349	-447.55273	1534.81567	1381.07764	-391.85989	1250.81177	1402.61450	-582.46185	1459.70129	1398.56750	-634.85193	1290.73303	1319.04468	-389.09735	1353.30713	1568.38452	-508.08633	1508.91992	1654.96973	-478.05844	1312.13611	1671.57690	-468.88446	1171.81567	1693.58057	-479.36221	1041.47375	1677.77173	-543.45087	915.85303	1705.14795	-493.50256	919.24622	1712.83447	-513.46503	855.15131	1204.23474	-528.95905	1492.73340	1114.26929	-525.20361	1301.12268	1095.95764	-562.04718	1157.78735	1081.62976	-617.50830	1050.65649	1103.88672	-695.59210	941.87390	1071.71509	-651.86694	925.31348	1069.35913	-705.54034	876.47443	1532.49268	-623.53540	999.50049	1276.81482	-637.22815	980.00287	1442.53589	-417.36795	1033.17773	1327.86401	-417.85620	1031.09363	1612.19458	-602.52423	694.80151	1594.41040	-619.08942	495.10172	1583.51025	-561.09753	310.22549	1568.80371	-571.29962	84.34918	1509.08826	-556.36981	54.21347	1626.67932	-710.94910	47.52834	1224.77380	-550.84503	670.33496	1273.72559	-532.72949	461.59344	1274.01843	-476.85568	280.72922	1319.84814	-446.75656	91.02876	1378.12927	-410.94897	38.97429	1296.68518	-594.84509	33.77515	1336.42578	-594.17627	1799.18213	-3360.28198	2845.20337	1033.92615 
188	1.870	1407.49146	-701.25769	1708.90015	1271.27551	-658.21069	1685.28967	1455.69849	-561.69836	1677.44653	1322.49854	-508.47681	1656.39441	1386.41089	-455.02219	1534.38403	1381.23743	-398.75531	1250.39771	1402.71423	-590.05115	1459.23743	1398.25830	-641.92627	1290.09424	1319.09460	-395.86313	1352.92444	1568.43506	-515.19843	1508.09717	1654.79614	-483.53534	1311.59314	1671.80359	-473.06927	1171.57739	1693.99756	-482.27054	1041.16260	1678.92017	-545.61108	914.95264	1705.65125	-495.37283	918.72742	1713.88159	-514.85620	854.63733	1204.49036	-536.08191	1492.67371	1114.16150	-533.84344	1300.85596	1095.63550	-572.57220	1157.98865	1081.36768	-629.24530	1051.53186	1103.82861	-707.88965	943.19012	1071.14136	-664.44604	926.40985	1069.06897	-718.44037	877.92542	1532.58057	-630.78668	999.16266	1276.64966	-643.93372	979.55560	1442.61914	-424.41873	1032.52148	1328.12964	-424.83740	1030.32446	1612.10681	-610.70264	694.56281	1593.66296	-628.75690	494.38324	1584.76978	-577.75342	306.98837	1571.85315	-596.56061	81.63644	1512.29700	-582.21832	50.80487	1628.52771	-738.13342	49.60660	1224.97461	-555.58618	669.77478	1273.99780	-535.73145	461.31781	1274.27637	-478.41028	280.76108	1320.03259	-447.03879	91.20197	1378.84497	-411.27890	38.65993	1296.56421	-594.86163	33.76960	1336.99072	-602.10059	1798.58826	-3357.19971	2845.74316	1034.00818 
